<svg width="80" height="82" viewBox="0 0 80 82" fill="none" xmlns="http://www.w3.org/2000/svg">
<rect width="80" height="82" rx="20" fill="#FFCD1E" fill-opacity="0.2"/>
<circle cx="39.5" cy="40.5" r="28.5" fill="#FFCD1E"/>
<path opacity="0.15" d="M39.5001 40.5003C41.7781 38.2223 45.4716 38.2223 47.7496 40.5003L51.8744 44.6251L43.6249 52.8747L39.5001 48.7499C37.222 46.4719 37.222 42.7784 39.5001 40.5003C37.222 42.7784 33.5285 42.7784 31.2505 40.5003L27.1257 36.3756L35.3753 28.126L39.5001 32.2508C41.7781 34.5288 41.7781 38.2223 39.5001 40.5003Z" fill="white"/>
<path d="M52.155 44.9054L43.9054 53.1549M52.155 44.9054L48.0301 40.7806M52.155 44.9054L53.1862 45.9365M43.9054 53.1549L39.7806 49.0301M43.9054 53.1549L44.9366 54.1861M39.7806 49.0301L48.0301 40.7806M39.7806 49.0301C37.5025 46.7521 37.5026 43.0586 39.7806 40.7806M48.0301 40.7806C45.7521 38.5025 42.0587 38.5025 39.7806 40.7806M39.7806 32.531L31.531 40.7806M39.7806 32.531C42.0586 34.809 42.0587 38.5025 39.7806 40.7806M39.7806 32.531L35.6558 28.4062M31.531 40.7806C33.809 43.0586 37.5026 43.0586 39.7806 40.7806M31.531 40.7806L27.4063 36.6558M35.6558 28.4062L27.4063 36.6558M35.6558 28.4062L34.6246 27.375M27.4063 36.6558L26.375 35.6246" stroke="white" stroke-width="1.5" stroke-linecap="round" stroke-linejoin="round"/>
</svg>
